<?xml version="1.0" standalone="no"?>
<!DOCTYPE svg PUBLIC "-//W3C//DTD SVG 20010904//EN"
 "http://www.w3.org/TR/2001/REC-SVG-20010904/DTD/svg10.dtd">
<svg version="1.0" xmlns="http://www.w3.org/2000/svg"
 width="675.000000pt" height="613.000000pt" viewBox="0 0 675.000000 613.000000"
 preserveAspectRatio="xMidYMid meet">

<g transform="translate(0.000000,613.000000) scale(0.100000,-0.100000)"
fill="#000000" stroke="none">
<path d="M1135 6020 c-225 -41 -434 -144 -591 -293 -69 -65 -174 -195 -174
-215 0 -7 -4 -12 -8 -12 -10 0 -85 -148 -85 -167 0 -7 -5 -13 -10 -13 -5 0 -6
-12 -3 -27 4 -17 3 -23 -2 -15 -11 17 -38 -66 -58 -178 -12 -74 -14 -359 -11
-2101 3 -2206 -1 -2035 60 -2214 115 -335 386 -587 734 -683 l98 -27 2310 0
2310 0 99 28 c229 64 402 175 547 353 111 136 182 282 220 453 18 83 19 161
19 2103 0 1762 -2 2026 -15 2090 -19 93 -46 179 -54 174 -3 -2 -6 8 -7 23 0
14 -18 60 -38 101 -169 336 -497 569 -877 625 -94 13 -367 15 -2235 14 -2016
-1 -2134 -2 -2229 -19z m2318 -614 c18 -7 43 -26 57 -41 24 -25 25 -34 28
-167 l4 -140 44 -26 c72 -44 73 -46 94 -480 11 -213 26 -513 35 -667 8 -154
15 -309 16 -345 1 -80 11 -60 32 65 25 140 216 1154 229 1209 13 60 42 91 97
106 22 6 41 14 41 19 0 35 64 349 75 372 25 47 67 63 149 55 184 -16 534 -69
566 -84 22 -11 42 -31 54 -55 l18 -39 -37 -186 c-21 -103 -39 -191 -41 -197
-3 -6 6 -15 18 -20 37 -16 70 -74 62 -110 -3 -16 -57 -241 -119 -500 -172
-711 -203 -849 -198 -857 2 -5 15 -8 28 -8 13 0 59 -11 103 -25 83 -26 144
-72 163 -122 5 -13 9 -97 9 -185 0 -197 -11 -228 -96 -285 -36 -24 -55 -44
-58 -62 -3 -14 -33 -201 -66 -416 -33 -214 -69 -446 -80 -515 -11 -69 -45
-283 -75 -476 -30 -193 -59 -362 -64 -376 -24 -63 -114 -119 -230 -144 -99
-21 -1745 -21 -1854 0 -142 28 -216 84 -237 182 -6 27 -42 247 -81 489 -79
498 -196 1217 -205 1256 -3 19 -17 32 -45 44 -53 24 -116 94 -124 138 -4 19
-5 105 -3 190 l3 155 31 39 c36 46 119 90 186 99 27 4 52 12 54 18 3 7 -30
104 -71 217 -42 112 -89 240 -105 284 -16 44 -70 190 -120 325 l-91 245 0 105
c0 105 27 656 36 719 6 44 31 71 68 71 24 0 50 -20 141 -108 175 -169 333
-317 492 -463 34 -31 66 -64 72 -75 5 -10 40 -120 77 -244 36 -124 77 -261 90
-305 13 -44 39 -132 58 -195 89 -303 162 -531 165 -517 3 15 -5 125 -47 632
-11 132 -32 396 -47 587 -26 343 -26 348 -7 380 10 18 33 42 50 53 l30 20 6
137 c6 156 18 191 77 220 30 16 66 18 273 18 179 0 246 -3 270 -14z"/>
<path d="M2976 5264 c-3 -8 -6 -56 -6 -105 l0 -89 215 0 216 0 -3 103 -3 102
-206 3 c-182 2 -207 0 -213 -14z"/>
<path d="M4325 5218 c-6 -17 -53 -282 -51 -285 1 -1 103 -18 226 -38 124 -19
239 -37 255 -40 l30 -5 28 151 c16 83 26 153 23 156 -4 4 -464 72 -494 73 -7
0 -15 -6 -17 -12z"/>
<path d="M2945 4921 c-62 -11 -65 -15 -65 -89 0 -85 29 -507 80 -1163 22 -283
40 -516 40 -519 0 -3 -44 -3 -97 0 l-98 5 -57 175 c-31 96 -80 249 -108 340
-48 153 -123 387 -206 642 -19 58 -41 109 -49 112 -14 5 -85 -19 -85 -29 0 -3
18 -53 39 -113 22 -59 65 -185 97 -280 39 -118 60 -169 66 -160 6 9 7 6 3 -9
-4 -14 27 -117 85 -290 118 -346 129 -381 122 -387 -3 -3 -16 -3 -28 -1 -13 3
-35 7 -48 10 -17 4 -28 17 -39 47 -9 24 -30 81 -47 128 -17 47 -54 148 -82
225 -28 77 -56 155 -62 173 -7 18 -16 29 -21 25 -4 -5 -5 -3 -1 4 4 7 -14 70
-40 140 -78 216 -135 376 -150 424 -20 67 -34 75 -89 54 -46 -17 -53 -31 -35
-66 6 -10 46 -117 89 -236 126 -348 200 -548 276 -748 68 -177 69 -159 -6
-151 -35 4 -69 13 -76 19 -6 7 -39 86 -72 177 -33 91 -73 201 -90 245 -16 44
-73 198 -127 342 -53 145 -99 261 -103 259 -3 -2 -6 9 -7 25 -1 15 -8 39 -18
53 l-16 25 -47 -20 c-26 -11 -49 -22 -51 -23 -2 -3 49 -146 120 -331 31 -82
144 -387 203 -551 18 -50 35 -106 37 -125 3 -28 -1 -35 -27 -49 -16 -8 -32
-16 -34 -17 -33 -20 396 -84 689 -103 216 -14 932 -15 1130 -1 301 21 580 59
662 90 21 8 19 10 -22 20 -67 18 -70 19 -70 36 0 27 58 279 197 849 l136 560
-21 17 c-24 19 -162 47 -417 84 -191 28 -244 31 -267 13 -11 -9 -61 -239 -172
-798 -86 -432 -159 -795 -161 -807 -5 -22 -10 -23 -94 -23 l-89 0 -6 63 c-4
34 -13 186 -21 337 -24 453 -64 1169 -71 1263 -6 83 -8 89 -33 100 -30 12
-482 20 -546 8z m149 -80 c6 -9 19 -226 35 -596 5 -122 5 -194 -2 -202 -5 -7
-23 -13 -39 -13 -16 0 -31 6 -33 13 -7 19 -24 327 -31 569 l-7 218 24 9 c31
13 47 13 53 2z m1501 -181 c14 -5 28 -17 32 -26 5 -14 -35 -203 -108 -509 -29
-121 -143 -612 -181 -780 -39 -175 -37 -168 -63 -161 -14 4 -44 2 -67 -3 -23
-6 -44 -8 -46 -6 -5 4 24 137 105 490 165 715 223 959 233 983 11 24 49 29 95
12z m-1229 -696 c60 -29 82 -110 49 -174 -42 -82 -209 -84 -261 -4 -37 55 -11
148 48 177 43 21 121 21 164 1z"/>
<path d="M1905 4794 c-60 -25 -114 -49 -119 -54 -9 -9 -34 -199 -35 -268 -1
-20 5 -35 14 -38 14 -6 158 37 395 117 63 21 116 39 117 39 2 0 3 11 3 24 0
18 -29 49 -116 125 -63 55 -123 101 -132 101 -9 -1 -66 -21 -127 -46z"/>
<path d="M2108 3043 c7 -3 16 -2 19 1 4 3 -2 6 -13 5 -11 0 -14 -3 -6 -6z"/>
<path d="M4618 3043 c7 -3 16 -2 19 1 4 3 -2 6 -13 5 -11 0 -14 -3 -6 -6z"/>
<path d="M2148 3033 c7 -3 16 -2 19 1 4 3 -2 6 -13 5 -11 0 -14 -3 -6 -6z"/>
<path d="M4568 3033 c6 -2 18 -2 25 0 6 3 1 5 -13 5 -14 0 -19 -2 -12 -5z"/>
<path d="M2313 3003 c9 -2 25 -2 35 0 9 3 1 5 -18 5 -19 0 -27 -2 -17 -5z"/>
<path d="M4393 3003 c9 -2 25 -2 35 0 9 3 1 5 -18 5 -19 0 -27 -2 -17 -5z"/>
<path d="M2388 2993 c12 -2 30 -2 40 0 9 3 -1 5 -23 4 -22 0 -30 -2 -17 -4z"/>
<path d="M4313 2993 c9 -2 25 -2 35 0 9 3 1 5 -18 5 -19 0 -27 -2 -17 -5z"/>
<path d="M2697 2963 c18 -2 50 -2 70 0 21 2 7 4 -32 4 -38 0 -55 -2 -38 -4z"/>
<path d="M3973 2963 c20 -2 54 -2 75 0 20 2 3 4 -38 4 -41 0 -58 -2 -37 -4z"/>
<path d="M2868 2953 c23 -2 59 -2 80 0 20 2 1 4 -43 4 -44 0 -61 -2 -37 -4z"/>
<path d="M3768 2953 c23 -2 61 -2 85 0 23 2 4 4 -43 4 -47 0 -66 -2 -42 -4z"/>
<path d="M1931 2904 c0 -11 3 -14 6 -6 3 7 2 16 -1 19 -3 4 -6 -2 -5 -13z"/>
<path d="M1940 2856 c0 -8 4 -17 9 -20 5 -4 7 3 4 14 -6 23 -13 26 -13 6z"/>
<path d="M4786 2833 c-6 -14 -5 -15 5 -6 7 7 10 15 7 18 -3 3 -9 -2 -12 -12z"/>
<path d="M4750 2800 c-9 -6 -10 -10 -3 -10 6 0 15 5 18 10 8 12 4 12 -15 0z"/>
<path d="M2118 2753 c6 -2 18 -2 25 0 6 3 1 5 -13 5 -14 0 -19 -2 -12 -5z"/>
<path d="M4628 2753 c7 -3 16 -2 19 1 4 3 -2 6 -13 5 -11 0 -14 -3 -6 -6z"/>
<path d="M2283 2723 c9 -2 25 -2 35 0 9 3 1 5 -18 5 -19 0 -27 -2 -17 -5z"/>
<path d="M4453 2723 c9 -2 23 -2 30 0 6 3 -1 5 -18 5 -16 0 -22 -2 -12 -5z"/>
<path d="M2363 2713 c9 -2 25 -2 35 0 9 3 1 5 -18 5 -19 0 -27 -2 -17 -5z"/>
<path d="M4383 2713 c9 -2 23 -2 30 0 6 3 -1 5 -18 5 -16 0 -22 -2 -12 -5z"/>
<path d="M2708 2683 c17 -2 47 -2 65 0 17 2 3 4 -33 4 -36 0 -50 -2 -32 -4z"/>
<path d="M3998 2683 c17 -2 47 -2 65 0 17 2 3 4 -33 4 -36 0 -50 -2 -32 -4z"/>
<path d="M2953 2673 c42 -2 112 -2 155 0 42 1 7 3 -78 3 -85 0 -120 -2 -77 -3z"/>
<path d="M3673 2673 c42 -2 112 -2 155 0 42 1 7 3 -78 3 -85 0 -120 -2 -77 -3z"/>
<path d="M2110 2590 c0 -5 7 -7 15 -4 8 4 15 8 15 10 0 2 -7 4 -15 4 -8 0 -15
-4 -15 -10z"/>
<path d="M4628 2593 c7 -3 16 -2 19 1 4 3 -2 6 -13 5 -11 0 -14 -3 -6 -6z"/>
<path d="M2298 2563 c12 -2 30 -2 40 0 9 3 -1 5 -23 4 -22 0 -30 -2 -17 -4z"/>
<path d="M4443 2563 c9 -2 23 -2 30 0 6 3 -1 5 -18 5 -16 0 -22 -2 -12 -5z"/>
<path d="M2393 2553 c9 -2 23 -2 30 0 6 3 -1 5 -18 5 -16 0 -22 -2 -12 -5z"/>
<path d="M4373 2553 c9 -2 25 -2 35 0 9 3 1 5 -18 5 -19 0 -27 -2 -17 -5z"/>
<path d="M4632 2535 c0 -16 2 -22 5 -12 2 9 2 23 0 30 -3 6 -5 -1 -5 -18z"/>
<path d="M2743 2523 c26 -2 67 -2 90 0 23 2 2 3 -48 3 -49 0 -68 -1 -42 -3z"/>
<path d="M3993 2523 c20 -2 54 -2 75 0 20 2 3 4 -38 4 -41 0 -58 -2 -37 -4z"/>
<path d="M3048 2513 c94 -2 250 -2 345 0 94 1 17 3 -173 3 -190 0 -267 -2
-172 -3z"/>
<path d="M3688 2513 c45 -2 119 -2 165 0 45 1 8 3 -83 3 -91 0 -128 -2 -82 -3z"/>
<path d="M2284 2423 c6 -78 51 -398 101 -718 64 -414 75 -493 75 -512 0 -19 8
-22 64 -28 36 -4 70 -5 78 -2 7 3 -8 6 -34 6 -27 1 -48 4 -48 9 0 4 -9 61 -19
127 -45 274 -103 656 -136 900 -20 143 -38 268 -41 278 -3 9 -15 17 -26 17
-20 0 -21 -4 -14 -77z"/>
<path d="M4622 2465 c0 -16 2 -22 5 -12 2 9 2 23 0 30 -3 6 -5 -1 -5 -18z"/>
<path d="M2142 2425 c0 -16 2 -22 5 -12 2 9 2 23 0 30 -3 6 -5 -1 -5 -18z"/>
<path d="M2152 2365 c0 -16 2 -22 5 -12 2 9 2 23 0 30 -3 6 -5 -1 -5 -18z"/>
<path d="M4592 2265 c0 -16 2 -22 5 -12 2 9 2 23 0 30 -3 6 -5 -1 -5 -18z"/>
<path d="M4582 2205 c0 -16 2 -22 5 -12 2 9 2 23 0 30 -3 6 -5 -1 -5 -18z"/>
<path d="M2182 2170 c0 -14 2 -19 5 -12 2 6 2 18 0 25 -3 6 -5 1 -5 -13z"/>
<path d="M4347 2135 c-4 -8 -13 -178 -22 -377 -9 -200 -19 -414 -23 -475 -7
-109 -7 -113 13 -113 34 0 40 12 43 90 1 41 9 212 17 380 8 168 15 351 15 408
0 93 -2 102 -19 102 -10 0 -21 -7 -24 -15z"/>
<path d="M2192 2105 c0 -16 2 -22 5 -12 2 9 2 23 0 30 -3 6 -5 -1 -5 -18z"/>
<path d="M4552 2005 c0 -16 2 -22 5 -12 2 9 2 23 0 30 -3 6 -5 -1 -5 -18z"/>
<path d="M4542 1945 c0 -16 2 -22 5 -12 2 9 2 23 0 30 -3 6 -5 -1 -5 -18z"/>
<path d="M2222 1930 c0 -14 2 -19 5 -12 2 6 2 18 0 25 -3 6 -5 1 -5 -13z"/>
<path d="M2232 1865 c0 -16 2 -22 5 -12 2 9 2 23 0 30 -3 6 -5 -1 -5 -18z"/>
<path d="M4512 1745 c0 -16 2 -22 5 -12 2 9 2 23 0 30 -3 6 -5 -1 -5 -18z"/>
<path d="M2262 1680 c0 -19 2 -27 5 -17 2 9 2 25 0 35 -3 9 -5 1 -5 -18z"/>
<path d="M4502 1675 c0 -16 2 -22 5 -12 2 9 2 23 0 30 -3 6 -5 -1 -5 -18z"/>
<path d="M2271 1619 c0 -13 4 -33 9 -44 7 -14 8 -8 3 20 -7 46 -13 59 -12 24z"/>
<path d="M4472 1475 c0 -16 2 -22 5 -12 2 9 2 23 0 30 -3 6 -5 -1 -5 -18z"/>
<path d="M2302 1435 c0 -16 2 -22 5 -12 2 9 2 23 0 30 -3 6 -5 -1 -5 -18z"/>
<path d="M4462 1410 c0 -19 2 -27 5 -17 2 9 2 25 0 35 -3 9 -5 1 -5 -18z"/>
<path d="M2312 1370 c0 -14 2 -19 5 -12 2 6 2 18 0 25 -3 6 -5 1 -5 -13z"/>
<path d="M2331 1264 c0 -11 3 -14 6 -6 3 7 2 16 -1 19 -3 4 -6 -2 -5 -13z"/>
<path d="M4431 1214 c0 -11 3 -14 6 -6 3 7 2 16 -1 19 -3 4 -6 -2 -5 -13z"/>
<path d="M2343 1210 c2 -8 14 -16 28 -17 19 -1 20 -1 4 4 -11 3 -24 10 -28 17
-6 7 -7 6 -4 -4z"/>
<path d="M4147 1163 c18 -2 50 -2 70 0 21 2 7 4 -32 4 -38 0 -55 -2 -38 -4z"/>
<path d="M2718 1153 c34 -2 90 -2 125 0 34 2 6 3 -63 3 -69 0 -97 -1 -62 -3z"/>
<path d="M3923 1153 c31 -2 83 -2 115 0 31 2 5 3 -58 3 -63 0 -89 -1 -57 -3z"/>
<path d="M2408 1033 c7 -3 16 -2 19 1 4 3 -2 6 -13 5 -11 0 -14 -3 -6 -6z"/>
<path d="M4358 1033 c6 -2 18 -2 25 0 6 3 1 5 -13 5 -14 0 -19 -2 -12 -5z"/>
<path d="M2637 1003 c18 -2 50 -2 70 0 21 2 7 4 -32 4 -38 0 -55 -2 -38 -4z"/>
<path d="M4038 1003 c23 -2 59 -2 80 0 20 2 1 4 -43 4 -44 0 -61 -2 -37 -4z"/>
<path d="M3073 993 c170 -2 444 -2 610 0 166 1 28 2 -308 2 -335 0 -471 -1
-302 -2z"/>
<path d="M4391 954 c0 -11 3 -14 6 -6 3 7 2 16 -1 19 -3 4 -6 -2 -5 -13z"/>
<path d="M2380 931 c0 -11 4 -22 9 -25 4 -3 6 6 3 19 -5 30 -12 33 -12 6z"/>
<path d="M4350 880 c-9 -6 -10 -10 -3 -10 6 0 15 5 18 10 8 12 4 12 -15 0z"/>
<path d="M2533 843 c15 -2 37 -2 50 0 12 2 0 4 -28 4 -27 0 -38 -2 -22 -4z"/>
<path d="M4118 843 c23 -2 61 -2 85 0 23 2 4 4 -43 4 -47 0 -66 -2 -42 -4z"/>
</g>
</svg>
